<mxfile host="app.diagrams.net" modified="2024-05-19T00:50:01.188Z" agent="Mozilla/5.0 (Windows NT 10.0; Win64; x64) AppleWebKit/537.36 (KHTML, like Gecko) Chrome/125.0.0.0 Safari/537.36" etag="68TmgaSQW8MHd-CHCuBD" version="24.2.5" type="device">
  <diagram name="Страница — 1" id="BzQkLCXZ8Jo-D1yzisdd">
    <mxGraphModel dx="1194" dy="750" grid="0" gridSize="10" guides="1" tooltips="1" connect="1" arrows="1" fold="1" page="1" pageScale="1" pageWidth="827" pageHeight="1169" math="0" shadow="0">
      <root>
        <mxCell id="0" />
        <mxCell id="1" parent="0" />
        <mxCell id="pK_e13PjdUVbPvAR0TOd-9" value="" style="edgeStyle=orthogonalEdgeStyle;rounded=0;orthogonalLoop=1;jettySize=auto;html=1;" parent="1" source="pK_e13PjdUVbPvAR0TOd-2" target="pK_e13PjdUVbPvAR0TOd-3" edge="1">
          <mxGeometry relative="1" as="geometry" />
        </mxCell>
        <mxCell id="pK_e13PjdUVbPvAR0TOd-2" value="Авторизация" style="shape=process;whiteSpace=wrap;html=1;backgroundOutline=1;" parent="1" vertex="1">
          <mxGeometry x="300" y="130" width="120" height="60" as="geometry" />
        </mxCell>
        <mxCell id="pK_e13PjdUVbPvAR0TOd-10" value="" style="edgeStyle=orthogonalEdgeStyle;rounded=0;orthogonalLoop=1;jettySize=auto;html=1;" parent="1" source="pK_e13PjdUVbPvAR0TOd-3" target="pK_e13PjdUVbPvAR0TOd-5" edge="1">
          <mxGeometry relative="1" as="geometry" />
        </mxCell>
        <mxCell id="pK_e13PjdUVbPvAR0TOd-3" value="Каталог фильмов" style="shape=parallelogram;perimeter=parallelogramPerimeter;whiteSpace=wrap;html=1;fixedSize=1;" parent="1" vertex="1">
          <mxGeometry x="300" y="230" width="120" height="60" as="geometry" />
        </mxCell>
        <mxCell id="G6eAfmYQF7gDn0O1MDxX-7" style="edgeStyle=orthogonalEdgeStyle;rounded=0;orthogonalLoop=1;jettySize=auto;html=1;exitX=0.5;exitY=1;exitDx=0;exitDy=0;entryX=0.5;entryY=0;entryDx=0;entryDy=0;" edge="1" parent="1" source="pK_e13PjdUVbPvAR0TOd-4" target="G6eAfmYQF7gDn0O1MDxX-6">
          <mxGeometry relative="1" as="geometry" />
        </mxCell>
        <mxCell id="pK_e13PjdUVbPvAR0TOd-4" value="Записать данные в бд" style="shape=process;whiteSpace=wrap;html=1;backgroundOutline=1;" parent="1" vertex="1">
          <mxGeometry x="300" y="524.5" width="120" height="60" as="geometry" />
        </mxCell>
        <mxCell id="pK_e13PjdUVbPvAR0TOd-11" value="" style="edgeStyle=orthogonalEdgeStyle;rounded=0;orthogonalLoop=1;jettySize=auto;html=1;" parent="1" source="pK_e13PjdUVbPvAR0TOd-5" target="pK_e13PjdUVbPvAR0TOd-6" edge="1">
          <mxGeometry relative="1" as="geometry" />
        </mxCell>
        <mxCell id="pK_e13PjdUVbPvAR0TOd-5" value="Оценить фильм" style="rounded=0;whiteSpace=wrap;html=1;" parent="1" vertex="1">
          <mxGeometry x="300" y="330" width="120" height="60" as="geometry" />
        </mxCell>
        <mxCell id="pK_e13PjdUVbPvAR0TOd-12" value="" style="edgeStyle=orthogonalEdgeStyle;rounded=0;orthogonalLoop=1;jettySize=auto;html=1;" parent="1" source="pK_e13PjdUVbPvAR0TOd-6" target="pK_e13PjdUVbPvAR0TOd-4" edge="1">
          <mxGeometry relative="1" as="geometry" />
        </mxCell>
        <mxCell id="pK_e13PjdUVbPvAR0TOd-6" value="Написать рецензию" style="rounded=0;whiteSpace=wrap;html=1;" parent="1" vertex="1">
          <mxGeometry x="300" y="430" width="120" height="60" as="geometry" />
        </mxCell>
        <mxCell id="G6eAfmYQF7gDn0O1MDxX-5" style="edgeStyle=orthogonalEdgeStyle;rounded=0;orthogonalLoop=1;jettySize=auto;html=1;exitX=0.5;exitY=1;exitDx=0;exitDy=0;entryX=0.5;entryY=0;entryDx=0;entryDy=0;" edge="1" parent="1" source="G6eAfmYQF7gDn0O1MDxX-4" target="pK_e13PjdUVbPvAR0TOd-2">
          <mxGeometry relative="1" as="geometry" />
        </mxCell>
        <mxCell id="G6eAfmYQF7gDn0O1MDxX-4" value="Начало" style="rounded=1;whiteSpace=wrap;html=1;arcSize=50;" vertex="1" parent="1">
          <mxGeometry x="300" y="61" width="120" height="35" as="geometry" />
        </mxCell>
        <mxCell id="G6eAfmYQF7gDn0O1MDxX-6" value="Конец" style="rounded=1;whiteSpace=wrap;html=1;arcSize=50;" vertex="1" parent="1">
          <mxGeometry x="300" y="621" width="120" height="35" as="geometry" />
        </mxCell>
      </root>
    </mxGraphModel>
  </diagram>
</mxfile>
